<?xml version="1.0" encoding="UTF-8" standalone="no"?> <svg width="64" height="64" viewBox="0 0 64 64" fill="none" xmlns="http://www.w3.org/2000/svg">
<path d="M26.57 61.4999C14.57 61.4999 2.5 58.7499 2.5 53.4999C2.5 48.4999 12.64 46.6599 17 46.0799C17.197 46.0536 17.3972 46.0664 17.5892 46.1175C17.7813 46.1687 17.9614 46.2571 18.1192 46.3778C18.2771 46.4985 18.4096 46.6492 18.5093 46.8211C18.6089 46.993 18.6737 47.1829 18.7 47.3799C18.7263 47.5769 18.7135 47.7771 18.6624 47.9691C18.6112 48.1612 18.5228 48.3413 18.4021 48.4991C18.2814 48.657 18.1307 48.7895 17.9588 48.8892C17.7869 48.9888 17.597 49.0536 17.4 49.0799C8.5 50.2199 5.5 52.5899 5.5 53.4899C5.5 55.1899 12.94 58.4899 26.57 58.4899C40.2 58.4899 47.64 55.1799 47.64 53.4899C47.64 52.5899 44.64 50.2199 35.75 49.0499C35.553 49.0236 35.3631 48.9588 35.1912 48.8592C35.0193 48.7595 34.8686 48.627 34.7479 48.4691C34.6272 48.3113 34.5388 48.1312 34.4876 47.9391C34.4365 47.7471 34.4237 47.5469 34.45 47.3499C34.4763 47.1529 34.5411 46.963 34.6407 46.7911C34.7404 46.6192 34.8729 46.4685 35.0308 46.3478C35.1886 46.2271 35.3687 46.1387 35.5607 46.0875C35.7528 46.0364 35.953 46.0236 36.15 46.0499C40.5 46.6299 50.64 48.5099 50.64 53.4699C50.64 58.7499 38.53 61.4999 26.57 61.4999Z" fill="#275996"/>
<path d="M51.0799 18.23L61.0799 7.79C61.2839 7.57805 61.421 7.31081 61.4742 7.02154C61.5275 6.73228 61.4945 6.43374 61.3794 6.16306C61.2643 5.89238 61.0722 5.66151 60.8269 5.49917C60.5817 5.33683 60.2941 5.25018 59.9999 5.25H29.3199C28.9221 5.25 28.5406 5.40804 28.2593 5.68934C27.978 5.97064 27.8199 6.35218 27.8199 6.75V29.75C27.8199 30.1478 27.978 30.5294 28.2593 30.8107C28.5406 31.092 28.9221 31.25 29.3199 31.25H59.9999C60.2941 31.2515 60.5821 31.1659 60.8277 31.0039C61.0733 30.842 61.2654 30.611 61.3799 30.34C61.4975 30.0709 61.5317 29.7728 61.4782 29.484C61.4248 29.1953 61.286 28.9292 61.0799 28.72L51.0799 18.23Z" fill="#E6E6E6"/>
<path d="M26.5699 2.5C25.4436 2.50264 24.3641 2.95126 23.5677 3.74771C22.7712 4.54417 22.3226 5.62364 22.3199 6.75V51.29C22.3199 52.4172 22.7677 53.4982 23.5647 54.2952C24.3618 55.0922 25.4428 55.54 26.5699 55.54C27.6971 55.54 28.7781 55.0922 29.5751 54.2952C30.3722 53.4982 30.8199 52.4172 30.8199 51.29V6.75C30.8199 5.62283 30.3722 4.54183 29.5751 3.7448C28.7781 2.94777 27.6971 2.5 26.5699 2.5V2.5Z" fill="#275996"/>
</svg>
